<svg xmlns="http://www.w3.org/2000/svg" width="333.333" height="333.333" preserveAspectRatio="xMidYMid meet" version="1.0" viewBox="0 0 250 250"><metadata>Created by potrace 1.11, written by Peter Selinger 2001-2013</metadata><g fill="#000" stroke="none"><path d="M690 1776 c0 -199 3 -266 13 -273 6 -5 34 -18 62 -28 61 -23 149 -103 181 -166 12 -25 28 -76 34 -113 7 -38 17 -66 24 -66 7 0 17 26 24 58 25 121 94 212 200 264 59 29 76 33 147 33 65 -1 91 -5 137 -27 76 -35 151 -107 185 -177 25 -50 28 -67 28 -156 0 -89 -3 -106 -28 -157 -36 -74 -102 -139 -175 -175 -49 -24 -69 -28 -142 -28 -72 0 -94 4 -142 27 -74 34 -143 103 -198 198 -56 94 -166 206 -246 247 -157 83 -349 85 -510 6 -53 -26 -134 -87 -134 -101 0 -4 22 -15 48 -25 68 -24 130 -82 208 -195 120 -174 276 -307 457 -392 353 -166 735 -141 1094 72 250 147 372 344 373 599 0 219 -103 409 -288 530 -131 86 -247 109 -554 109 l-168 0 0 101 c0 76 -3 100 -12 97 -7 -3 -44 -47 -81 -99 -64 -87 -71 -94 -103 -93 -19 0 -89 1 -157 2 l-123 2 -63 95 c-36 52 -70 95 -78 95 -10 0 -13 -51 -13 -264z" transform="translate(0.000000,250.000000) scale(0.100000,-0.100000)"/></g></svg>